<svg version="1.1" xmlns="http://www.w3.org/2000/svg" xmlns:xlink="http://www.w3.org/1999/xlink" width="140" height="77" fill="none" viewBox="0 0 280 154">
  <rect width="280" height="154"  fill="#1f1f1f"/>
  <rect width="103" height="28" x="91" y="20" fill="#292929" rx="4"/>
  <rect width="95" height="5" x="95" y="26" fill="#b3afab"/>
  <rect width="76" height="5" x="95" y="37" fill="#d9dadd"/>
  <rect width="103" height="28" x="91" y="65" fill="#292929" rx="4"/>
  <rect width="76" height="5" x="95" y="71" fill="#d9dadd"/>
  <rect width="95" height="5" x="95" y="82" fill="#b3afab"/>
  <rect width="90" height="28" x="132" y="110" fill="#323348" rx="4"/>
  <rect width="64" height="5" x="136" y="116" fill="#b3afab"/>
  <rect width="82" height="5" x="136" y="127" fill="#c8c6c4"/>
  <g id="density-comfy-you">
    <path fill="#8a8bc3" d="M70.0498 42.6001C76.1249 42.6001 81.0498 37.6752 81.0498 31.6001C81.0498 25.525 76.1249 20.6001 70.0498 20.6001C63.9747 20.6001 59.0498 25.525 59.0498 31.6001C59.0498 37.6752 63.9747 42.6001 70.0498 42.6001Z"/>
    <path fill="url(#density-comfy-you-neck)" d="M70.0497 42.6002C71.3497 42.6002 72.5497 42.4002 73.7497 42.0002C73.5497 41.8002 73.3497 41.4002 73.3497 41.1002V36.2002L67.5497 36.4002V41.2002C67.5497 41.6002 67.2497 42.0002 66.9497 42.2002C67.9497 42.4002 68.9497 42.6002 70.0497 42.6002Z"/>
    <path fill="#e3636a" d="M77.0496 22L62.8496 22.1L61.8496 21.6L62.8496 21.1L77.0496 21C77.2496 21 77.4496 21.2 77.5496 21.5C77.5496 21.8 77.3496 22 77.0496 22Z"/>
    <path fill="url(#density-comfy-you-hair)" d="M70.1499 24.6001C72.6352 24.6001 74.6499 22.5854 74.6499 20.1001C74.6499 17.6148 72.6352 15.6001 70.1499 15.6001C67.6646 15.6001 65.6499 17.6148 65.6499 20.1001C65.6499 22.5854 67.6646 24.6001 70.1499 24.6001Z"/>
    <path fill="#59453c" d="M70.15 39.7001C75.0653 39.7001 79.05 35.7155 79.05 30.8001C79.05 25.8848 75.0653 21.9001 70.15 21.9001C65.2347 21.9001 61.25 25.8848 61.25 30.8001C61.25 35.7155 65.2347 39.7001 70.15 39.7001Z"/>
    <path fill="#deb994" d="M70.1497 40.3002C73.85 40.3002 76.8497 36.808 76.8497 32.5002C76.8497 28.1924 73.85 24.7002 70.1497 24.7002C66.4494 24.7002 63.4497 28.1924 63.4497 32.5002C63.4497 36.808 66.4494 40.3002 70.1497 40.3002Z"/>
    <path fill="#deb994" d="M63.0497 32.3001C62.6497 32.6001 62.4497 33.0001 62.4497 33.5001C62.4497 34.0001 62.5497 34.4001 62.8497 34.8001C63.1497 35.2001 63.5497 35.4001 64.0497 35.4001C64.5497 35.4001 65.0497 35.3001 65.3497 35.0001C65.7497 34.7001 65.9497 34.4001 65.9497 33.9001C65.9497 33.4001 65.8497 33.0001 65.5497 32.6001C65.2497 32.2001 64.8497 32.0001 64.3497 32.0001C63.8497 31.9001 63.4497 32.0001 63.0497 32.3001Z"/>
    <path fill="#deb994" d="M74.9496 32.3001C74.5496 32.6001 74.3496 33.0001 74.3496 33.5001C74.3496 34.0001 74.4496 34.4001 74.7496 34.8001C75.0496 35.2001 75.4496 35.4001 75.9496 35.4001C76.4496 35.4001 76.9496 35.3001 77.2496 35.0001C77.6496 34.7001 77.8496 34.4001 77.8496 33.9001C77.8496 33.4001 77.7496 33.0001 77.4496 32.6001C77.1496 32.2001 76.7496 32.0001 76.2496 32.0001C75.7496 31.9001 75.3496 32.0001 74.9496 32.3001Z"/>
    <path fill="#5a4539" d="M63.8499 26.0001C62.2499 28.3001 61.7499 30.5001 62.4499 33.0001C63.4499 31.5001 64.5499 32.1001 65.9499 31.7001C67.7499 31.2001 69.7499 31.3001 71.1499 29.9001C72.9499 28.1001 73.0499 25.1001 72.9499 23.6001C72.8499 23.3001 66.4499 22.6001 63.8499 26.0001Z"/>
    <path fill="#5a4539" d="M72.55 25C71.95 26.5 72.15 32 77.75 32.3C77.85 30 78.05 27.8 76.75 25.9C75.55 24.3 73.55 22.6 72.55 25Z"/>
    <path stroke="#9a653d" stroke-linecap="round" stroke-linejoin="round" stroke-width="0.6548" d="M73.15 36.0002C74.4755 36.0002 75.55 34.9257 75.55 33.6002C75.55 32.2747 74.4755 31.2002 73.15 31.2002C71.8245 31.2002 70.75 32.2747 70.75 33.6002C70.75 34.9257 71.8245 36.0002 73.15 36.0002Z"/>
    <path stroke="#9a653d" stroke-linecap="round" stroke-linejoin="round" stroke-width="0.6548" d="M67.2496 36.1C68.5751 36.1 69.6496 35.0255 69.6496 33.7001C69.6496 32.3746 68.5751 31.3 67.2496 31.3C65.9241 31.3 64.8496 32.3746 64.8496 33.7001C64.8496 35.0255 65.9241 36.1 67.2496 36.1Z"/>
    <path stroke="#9a653d" stroke-linecap="round" stroke-linejoin="round" stroke-width="0.6548" d="M69.6499 33.1001H70.7499"/>
    <path fill="#33312d" d="M67.9331 33.5706C67.9352 33.0736 67.7131 32.6697 67.4369 32.6685C67.1608 32.6673 66.9352 33.0693 66.9331 33.5663C66.9309 34.0634 67.1531 34.4673 67.4292 34.4685C67.7053 34.4696 67.9309 34.0677 67.9331 33.5706Z"/>
    <path fill="#33312d" d="M73.3867 33.6812C73.3888 33.1842 73.1667 32.7802 72.8906 32.7791C72.6144 32.7779 72.3888 33.1799 72.3867 33.6769C72.3845 34.174 72.6067 34.5779 72.8828 34.5791C73.159 34.5802 73.3845 34.1783 73.3867 33.6812Z"/>
    <path fill="#bd8e67" d="M71.1496 38C70.7496 38.3 70.2496 38.4 69.6496 38.3C69.3496 38.3 69.1496 38.1 68.9496 38C68.7496 37.8 68.5496 37.6 68.4496 37.4C68.3496 37.3 68.4496 37.1 68.5496 37C68.6496 37 68.7496 37 68.7496 37C68.9496 37.1 69.0496 37.2 69.2496 37.2C69.4496 37.3 69.5496 37.3 69.7496 37.4C70.0496 37.5 70.4496 37.5 70.8496 37.5H70.9496C71.1496 37.5 71.2496 37.6 71.2496 37.8C71.2496 37.8 71.1496 37.9 71.1496 38Z"/>
  </g>
  <use xlink:href="#density-comfy-you" y="45"/>
  <defs>
    <linearGradient id="density-comfy-you-neck" x1="70.1743" x2="70.3738" y1="37.0122" y2="42.7997" gradientUnits="userSpaceOnUse">
      <stop offset="0.0668" stop-color="#9a653d"/>
      <stop offset="0.8469" stop-color="#deb994"/>
    </linearGradient>
    <linearGradient id="density-comfy-you-hair" x1="68.417" x2="71.608" y1="15.4781" y2="23.9886" gradientUnits="userSpaceOnUse">
      <stop offset="0.2689" stop-color="#5a4539"/>
      <stop offset="0.8111" stop-color="#463228"/>
    </linearGradient>
  </defs>
</svg>
