<svg version="1.1" width="140" height="77" viewBox="0 0 280 154" fill="none" xmlns="http://www.w3.org/2000/svg" xmlns:xlink="http://www.w3.org/1999/xlink">
  <rect width="280" height="154"  fill="#1f1f1f"/>
  <path d="M212 30H58V34H212V30Z" fill="#d9dadd"/>
  <path d="M156 60H58V64H156V60Z" fill="#d9dadd"/>
  <path d="M212 90H58V94H212V90Z" fill="#d9dadd"/>
  <path d="M248 120H58V124H248V120Z" fill="#d9dadd"/>
  <g id="density-compact-you">
    <path d="M41 41.0908C45.9706 41.0908 50 37.0614 50 32.0908C50 27.1203 45.9706 23.0908 41 23.0908C36.0294 23.0908 32 27.1203 32 32.0908C32 37.0614 36.0294 41.0908 41 41.0908Z" fill="#8a8bc3"/>
    <path d="M41 41.0911C42.0637 41.0911 43.0455 40.9275 44.0273 40.6002C43.8637 40.4366 43.7 40.1093 43.7 39.8638V35.8547L38.8727 36.0184V39.9456C38.8727 40.2729 38.6273 40.6002 38.3818 40.7638C39.2 40.9275 40.0182 41.0911 41 41.0911Z" fill="url(#density-compact-you-neck)"/>
    <path d="M46.7274 24.2369L35.1092 24.3187L34.291 23.9096L35.1092 23.5005L46.7274 23.4187C46.891 23.4187 47.0546 23.5823 47.1365 23.8278C47.1365 24.0732 46.891 24.2369 46.7274 24.2369Z" fill="#e3636a"/>
    <path d="M41.0822 26.3636C43.1156 26.3636 44.764 24.7152 44.764 22.6818C44.764 20.6484 43.1156 19 41.0822 19C39.0488 19 37.4004 20.6484 37.4004 22.6818C37.4004 24.7152 39.0488 26.3636 41.0822 26.3636Z" fill="url(#density-compact-you-hair)"/>
    <path d="M41.0816 38.7184C45.1033 38.7184 48.3634 35.4582 48.3634 31.4366C48.3634 27.415 45.1033 24.1548 41.0816 24.1548C37.06 24.1548 33.7998 27.415 33.7998 31.4366C33.7998 35.4582 37.06 38.7184 41.0816 38.7184Z" fill="#59453c"/>
    <path d="M41.0824 39.2094C44.1099 39.2094 46.5642 36.3522 46.5642 32.8276C46.5642 29.303 44.1099 26.4458 41.0824 26.4458C38.0549 26.4458 35.6006 29.303 35.6006 32.8276C35.6006 36.3522 38.0549 39.2094 41.0824 39.2094Z" fill="#deb994"/>
    <path d="M35.2726 32.6633C34.9454 32.9088 34.7817 33.2361 34.7817 33.6452C34.7817 34.0543 34.8636 34.3815 35.109 34.7088C35.3545 35.0361 35.6817 35.1997 36.0908 35.1997C36.4999 35.1997 36.909 35.1179 37.1545 34.8724C37.4817 34.627 37.6454 34.3815 37.6454 33.9724C37.6454 33.5633 37.5636 33.2361 37.3181 32.9088C37.0726 32.5815 36.7454 32.4179 36.3363 32.4179C35.8454 32.3361 35.5181 32.4179 35.2726 32.6633Z" fill="#deb994"/>
    <path d="M44.9265 32.6633C44.5992 32.9088 44.4355 33.2361 44.4355 33.6452C44.4355 34.0543 44.5174 34.3815 44.7628 34.7088C45.0083 35.0361 45.3355 35.1997 45.7446 35.1997C46.1537 35.1997 46.5628 35.1179 46.8083 34.8724C47.1355 34.627 47.2992 34.3815 47.2992 33.9724C47.2992 33.5633 47.2174 33.2361 46.9719 32.9088C46.7265 32.5815 46.3992 32.4179 45.9901 32.4179C45.581 32.3361 45.2537 32.4179 44.9265 32.6633Z" fill="#deb994"/>
    <path d="M35.8449 27.5089C34.5358 29.3907 34.1267 31.1907 34.6994 33.2362C35.5176 32.0089 36.4176 32.4998 37.5631 32.1725C39.0358 31.7635 40.6721 31.8453 41.8176 30.6998C43.2903 29.2271 43.3721 26.7725 43.2903 25.5453C43.2085 25.2998 37.9721 24.7271 35.8449 27.5089Z" fill="#5a4539"/>
    <path d="M43.0455 26.6912C42.5546 27.9184 42.7183 32.4184 47.3001 32.6639C47.3819 30.7821 47.5455 28.9821 46.4819 27.4275C45.5001 26.1184 43.8637 24.7275 43.0455 26.6912Z" fill="#5a4539"/>
    <path d="M43.5359 35.6912C44.6204 35.6912 45.4995 34.812 45.4995 33.7276C45.4995 32.6431 44.6204 31.7639 43.5359 31.7639C42.4514 31.7639 41.5723 32.6431 41.5723 33.7276C41.5723 34.812 42.4514 35.6912 43.5359 35.6912Z" stroke="#9a653d" stroke-width="0.6548" stroke-linecap="round" stroke-linejoin="round"/>
    <path d="M38.7097 35.7735C39.7942 35.7735 40.6734 34.8943 40.6734 33.8098C40.6734 32.7253 39.7942 31.8462 38.7097 31.8462C37.6252 31.8462 36.7461 32.7253 36.7461 33.8098C36.7461 34.8943 37.6252 35.7735 38.7097 35.7735Z" stroke="#9a653d" stroke-width="0.6548" stroke-linecap="round" stroke-linejoin="round"/>
    <path d="M40.6719 33.3184H41.4901" stroke="#9a653d" stroke-width="0.6548" stroke-linecap="round" stroke-linejoin="round"/>
    <path d="M39.2266 33.7557C39.2284 33.349 39.0466 33.0185 38.8207 33.0176C38.5948 33.0166 38.4102 33.3455 38.4084 33.7522C38.4067 34.1588 38.5884 34.4893 38.8144 34.4903C39.0403 34.4913 39.2249 34.1624 39.2266 33.7557Z" fill="#33312d"/>
    <path d="M43.6817 33.8079C43.6834 33.4012 43.5017 33.0708 43.2758 33.0698C43.0498 33.0688 42.8653 33.3977 42.8635 33.8044C42.8618 34.2111 43.0435 34.5416 43.2694 34.5425C43.4954 34.5435 43.68 34.2146 43.6817 33.8079Z" fill="#33312d"/>
    <path d="M41.8987 37.3279C41.5715 37.5734 41.1624 37.6552 40.6715 37.5734C40.426 37.5734 40.2624 37.4098 40.0987 37.3279C39.9351 37.1643 39.7715 37.0007 39.6897 36.837C39.6078 36.7552 39.6897 36.5916 39.7715 36.5098C39.8533 36.5098 39.9351 36.5098 39.9351 36.5098C40.0987 36.5916 40.1806 36.6734 40.3442 36.6734C40.5078 36.7552 40.5897 36.7552 40.7533 36.837C40.9987 36.9189 41.326 36.9189 41.6533 36.9189H41.7351C41.8987 36.9189 41.9806 37.0007 41.9806 37.1643C41.9806 37.1643 41.8987 37.2461 41.8987 37.3279Z" fill="#bd8e67"/>
  </g>
  <use xlink:href="#density-compact-you" y="30"/>
  <g id="density-compact-me">
    <path d="M41 131C45.9706 131 50 126.971 50 122C50 117.029 45.9706 113 41 113C36.0294 113 32 117.029 32 122C32 126.971 36.0294 131 41 131Z" fill="#fdc9b5"/>
    <path d="M35.5182 120.391C36.4219 120.391 37.1546 119.658 37.1546 118.755C37.1546 117.851 36.4219 117.118 35.5182 117.118C34.6145 117.118 33.8818 117.851 33.8818 118.755C33.8818 119.658 34.6145 120.391 35.5182 120.391Z" fill="#5a4539"/>
    <path d="M39.1181 113.764C40.1574 113.764 41 112.921 41 111.882C41 110.843 40.1574 110 39.1181 110C38.0788 110 37.2363 110.843 37.2363 111.882C37.2363 112.921 38.0788 113.764 39.1181 113.764Z" fill="#5a4539"/>
    <path d="M36.7461 115.155C37.7854 115.155 38.6279 114.312 38.6279 113.273C38.6279 112.234 37.7854 111.391 36.7461 111.391C35.7068 111.391 34.8643 112.234 34.8643 113.273C34.8643 114.312 35.7068 115.155 36.7461 115.155Z" fill="#5a4539"/>
    <path d="M35.435 117.772C36.4743 117.772 37.3169 116.93 37.3169 115.89C37.3169 114.851 36.4743 114.009 35.435 114.009C34.3957 114.009 33.5532 114.851 33.5532 115.89C33.5532 116.93 34.3957 117.772 35.435 117.772Z" fill="#5a4539"/>
    <path d="M46.0729 120.391C46.9766 120.391 47.7093 119.658 47.7093 118.755C47.7093 117.851 46.9766 117.118 46.0729 117.118C45.1691 117.118 44.4365 117.851 44.4365 118.755C44.4365 119.658 45.1691 120.391 46.0729 120.391Z" fill="#5a4539"/>
    <path d="M42.3901 113.927C43.4294 113.927 44.2719 113.085 44.2719 112.046C44.2719 111.006 43.4294 110.164 42.3901 110.164C41.3508 110.164 40.5083 111.006 40.5083 112.046C40.5083 113.085 41.3508 113.927 42.3901 113.927Z" fill="#5a4539"/>
    <path d="M45.0908 115.236C46.1301 115.236 46.9726 114.394 46.9726 113.354C46.9726 112.315 46.1301 111.473 45.0908 111.473C44.0515 111.473 43.209 112.315 43.209 113.354C43.209 114.394 44.0515 115.236 45.0908 115.236Z" fill="#5a4539"/>
    <path d="M43.209 116.545C44.2483 116.545 45.0908 115.702 45.0908 114.663C45.0908 113.624 44.2483 112.781 43.209 112.781C42.1697 112.781 41.3271 113.624 41.3271 114.663C41.3271 115.702 42.1697 116.545 43.209 116.545Z" fill="#5a4539"/>
    <path d="M46.0727 118.1C47.112 118.1 47.9546 117.258 47.9546 116.218C47.9546 115.179 47.112 114.336 46.0727 114.336C45.0334 114.336 44.1909 115.179 44.1909 116.218C44.1909 117.258 45.0334 118.1 46.0727 118.1Z" fill="#5a4539"/>
    <path d="M44.3546 123.255H37.3183C36.0092 123.255 35.0273 122.191 35.0273 120.964V117.364C35.0273 114.419 37.4819 111.882 40.5092 111.882H41.2455C44.191 111.882 46.7273 114.337 46.7273 117.364V120.964C46.6455 122.273 45.6637 123.255 44.3546 123.255Z" fill="#5a4539"/>
    <path d="M43.3718 130.701C42.6354 130.946 41.8172 131.028 40.999 131.028C40.099 131.028 39.199 130.864 38.3809 130.619C38.4627 130.455 38.4627 130.292 38.4627 130.128V121.619H43.2081V130.128C43.2081 130.373 43.2899 130.537 43.3718 130.701Z" fill="url(#density-compact-me-neck)"/>
    <path opacity="0.1" d="M43.2083 122.436V129.799C42.7174 130.045 42.1447 130.127 41.572 130.127H40.1811C39.6083 130.127 39.0356 129.963 38.4629 129.718V122.354H43.2083V122.436Z" fill="black"/>
    <path d="M41.5707 129.063H40.1798C37.8889 129.063 35.9253 127.182 35.9253 124.809V118.182C35.9253 115.891 37.8071 113.927 40.1798 113.927H41.5707C43.8617 113.927 45.8253 115.809 45.8253 118.182V124.809C45.7435 127.182 43.8617 129.063 41.5707 129.063Z" fill="#9a653d"/>
    <path d="M43.35 120.953C43.3527 120.456 43.1718 120.052 42.9458 120.05C42.7199 120.049 42.5345 120.451 42.5318 120.948C42.5291 121.445 42.71 121.849 42.9359 121.85C43.1619 121.852 43.3473 121.45 43.35 120.953Z" fill="#3a312e"/>
    <path d="M37.0722 127.427L40.6722 127.345L40.754 124.563C40.754 124.318 40.6722 124.154 40.4267 123.99L40.0994 123.909C39.1994 123.663 39.0358 122.518 39.7722 121.945L40.1813 121.618C40.4267 121.29 40.5085 120.963 40.5085 120.636V116.463L36.6631 116.545L37.0722 127.427Z" fill="url(#density-compact-me-nose)"/>
    <path d="M39.1893 120.914C39.1921 120.417 39.0111 120.013 38.7852 120.012C38.5593 120.011 38.3739 120.413 38.3712 120.91C38.3684 121.407 38.5494 121.811 38.7753 121.812C39.0012 121.813 39.1866 121.411 39.1893 120.914Z" fill="#3a312e"/>
    <path d="M42.5548 125.464C42.5548 126.119 41.982 126.691 41.3275 126.773C40.6729 127.019 40.0184 126.773 39.6911 126.201C39.6093 126.119 39.6911 125.955 39.7729 125.873H39.8548C40.4275 125.873 40.7548 125.873 41.082 125.791C41.3275 125.791 41.4093 125.71 41.6548 125.546C41.9002 125.382 41.982 125.301 42.2275 125.219C42.3093 125.137 42.4729 125.219 42.5548 125.301C42.5548 125.382 42.5548 125.382 42.5548 125.464Z" fill="#845135"/>
    <path d="M44.1076 112.944H37.4803L35.353 116.135V120.553H35.7621L36.3348 117.363C36.5803 116.381 37.3985 115.563 38.4621 115.563H43.1258C44.1076 115.563 45.0894 116.299 45.253 117.363L45.8258 120.553H46.2348V116.135L44.1076 112.944Z" fill="#5a4539"/>
    <path d="M33.9634 122.273C33.9634 123.255 34.8634 124.155 35.8452 124.155C35.927 124.155 36.827 124.155 36.827 124.155C37.727 124.073 37.727 123.255 37.727 122.273C37.727 121.291 37.8088 120.473 36.9907 120.391C36.9088 120.391 36.0088 120.391 35.927 120.391C34.8634 120.391 33.9634 121.291 33.9634 122.273Z" fill="#9a653d"/>
    <path d="M47.7088 122.273C47.7088 123.255 46.8088 124.155 45.827 124.155C45.7451 124.155 44.8451 124.155 44.8451 124.155C43.9451 124.073 43.9451 123.255 43.9451 122.273C43.9451 121.291 43.8633 120.473 44.6815 120.391C44.7633 120.391 45.6633 120.391 45.7451 120.391C46.8906 120.391 47.7088 121.291 47.7088 122.273Z" fill="#9a653d"/>
  </g>
  <use xlink:href="#density-compact-me" y="-30"/>
  <defs>
    <linearGradient id="density-compact-you-neck" x1="41.0611" y1="36.5445" x2="41.2243" y2="41.2797" gradientUnits="userSpaceOnUse">
      <stop offset="0.0668" stop-color="#9a653d"/>
      <stop offset="0.8469" stop-color="#deb994"/>
    </linearGradient>
    <linearGradient id="density-compact-you-hair" x1="39.6235" y1="18.9256" x2="42.2342" y2="25.8888" gradientUnits="userSpaceOnUse">
      <stop offset="0.2689" stop-color="#5a4539"/>
      <stop offset="0.8111" stop-color="#463228"/>
    </linearGradient>
    <radialGradient id="density-compact-me-neck" cx="0" cy="0" r="1" gradientUnits="userSpaceOnUse" gradientTransform="translate(40.8997 95.8191) scale(5.68939)">
      <stop stop-color="#724938"/>
      <stop offset="0.288" stop-color="#85563a"/>
      <stop offset="0.6211" stop-color="#95613c"/>
      <stop offset="0.8875" stop-color="#9a653d"/>
    </radialGradient>
    <radialGradient id="density-compact-me-nose" cx="0" cy="0" r="1" gradientUnits="userSpaceOnUse" gradientTransform="translate(41.1792 123.023) rotate(0.724926) scale(4.09004 3.68655)">
      <stop stop-color="#724938"/>
      <stop offset="0.3575" stop-color="#87573b"/>
      <stop offset="0.7681" stop-color="#9a653d"/>
      </radialGradient>
  </defs>
</svg>
