<svg version="1.1" width="140" height="77" viewBox="0 0 280 154" fill="none" xmlns="http://www.w3.org/2000/svg" xmlns:xlink="http://www.w3.org/1999/xlink">
  <rect width="280" height="154"  fill="#000"/>
  <path d="M212 30H58V34H212V30Z" fill="#fff"/>
  <path d="M156 60H58V64H156V60Z" fill="#fff"/>
  <path d="M212 90H58V94H212V90Z" fill="#fff"/>
  <path d="M248 120H58V124H248V120Z" fill="#fff"/>
  <g id="density-compact-me">
    <path d="M41 101.523C45.9706 101.523 50 97.494 50 92.5234C50 87.5529 45.9706 83.5234 41 83.5234C36.0294 83.5234 32 87.5529 32 92.5234C32 97.494 36.0294 101.523 41 101.523Z" fill="#fff"/>
    <path fill-rule="evenodd" clip-rule="evenodd" d="M47.7254 91.0265L47.7273 90.9954V90.807C48.3254 90.3244 48.7093 89.5849 48.7093 88.7545C48.7093 88.4006 48.6391 88.0623 48.5123 87.7535C48.7924 87.3092 48.955 86.7825 48.955 86.2182C48.955 85.3202 48.5446 84.5192 47.9019 83.9911C47.9482 83.786 47.9726 83.5729 47.9726 83.3545C47.9726 81.7629 46.6824 80.4727 45.0908 80.4727C44.9972 80.4727 44.9045 80.4772 44.813 80.4859C44.3003 79.6905 43.407 79.1638 42.3896 79.1638C41.8326 79.1638 41.3127 79.3221 40.8723 79.5954C40.3868 79.2223 39.7788 79 39.1181 79C38.0709 79 37.1553 79.5581 36.6507 80.3927C35.1033 80.443 33.8643 81.7133 33.8643 83.2729C33.8643 83.3392 33.8665 83.4049 33.8709 83.4701C33.0783 83.9834 32.5537 84.875 32.5537 85.8904C32.5537 86.5426 32.7706 87.1438 33.1351 87.6261C32.9729 87.9681 32.8818 88.3508 32.8818 88.7545C32.8818 89.6581 33.336 90.4541 34.0273 90.9289V90.9641C34.0273 92.7203 35.4337 94.255 37.3183 94.255H44.3546C46.2259 94.255 47.6128 92.8279 47.7254 91.0265Z" fill="#000"/>
    <path d="M47.7273 90.9954L48.2264 91.0265L48.2273 91.011V90.9954H47.7273ZM47.7254 91.0265L47.2264 90.9953L47.2264 90.9953L47.7254 91.0265ZM47.7273 90.807L47.4133 90.4179L47.2273 90.568V90.807H47.7273ZM48.5123 87.7535L48.0893 87.4868L47.9518 87.705L48.0498 87.9435L48.5123 87.7535ZM47.9019 83.9911L47.4141 83.8809L47.3462 84.1817L47.5844 84.3774L47.9019 83.9911ZM44.813 80.4859L44.3928 80.7569L44.5578 81.0128L44.8608 80.9837L44.813 80.4859ZM40.8723 79.5954L40.5676 79.9918L40.842 80.2026L41.1359 80.0202L40.8723 79.5954ZM36.6507 80.3927L36.667 80.8924L36.9382 80.8836L37.0786 80.6514L36.6507 80.3927ZM33.8709 83.4701L34.1427 83.8898L34.3897 83.7299L34.3698 83.4363L33.8709 83.4701ZM33.1351 87.6261L33.5869 87.8404L33.7168 87.5665L33.534 87.3247L33.1351 87.6261ZM34.0273 90.9289H34.5273V90.6657L34.3104 90.5167L34.0273 90.9289ZM47.2283 90.9642L47.2264 90.9953L48.2244 91.0577L48.2264 91.0265L47.2283 90.9642ZM47.2273 90.807V90.9954H48.2273V90.807H47.2273ZM48.2093 88.7545C48.2093 89.4272 47.899 90.0259 47.4133 90.4179L48.0413 91.1961C48.7518 90.6228 49.2093 89.7427 49.2093 88.7545H48.2093ZM48.0498 87.9435C48.1524 88.1933 48.2093 88.4671 48.2093 88.7545H49.2093C49.2093 88.3341 49.1259 87.9314 48.9748 87.5635L48.0498 87.9435ZM48.455 86.2182C48.455 86.6852 48.3207 87.1198 48.0893 87.4868L48.9352 88.0202C49.264 87.4986 49.455 86.8799 49.455 86.2182H48.455ZM47.5844 84.3774C48.1166 84.8147 48.455 85.4762 48.455 86.2182H49.455C49.455 85.1642 48.9726 84.2237 48.2193 83.6048L47.5844 84.3774ZM47.4726 83.3545C47.4726 83.5355 47.4524 83.7117 47.4141 83.8809L48.3896 84.1012C48.444 83.8604 48.4726 83.6103 48.4726 83.3545H47.4726ZM45.0908 80.9727C46.4062 80.9727 47.4726 82.039 47.4726 83.3545H48.4726C48.4726 81.4867 46.9585 79.9727 45.0908 79.9727V80.9727ZM44.8608 80.9837C44.9365 80.9764 45.0132 80.9727 45.0908 80.9727V79.9727C44.9812 79.9727 44.8726 79.9779 44.7652 79.9882L44.8608 80.9837ZM42.3896 79.6638C43.23 79.6638 43.9682 80.0982 44.3928 80.7569L45.2333 80.215C44.6324 79.2829 43.5841 78.6638 42.3896 78.6638V79.6638ZM41.1359 80.0202C41.4996 79.7945 41.9286 79.6638 42.3896 79.6638V78.6638C41.7366 78.6638 41.1257 78.8496 40.6086 79.1705L41.1359 80.0202ZM39.1181 79.5C39.6646 79.5 40.1664 79.6835 40.5676 79.9918L41.1769 79.1989C40.6073 78.7612 39.8929 78.5 39.1181 78.5V79.5ZM37.0786 80.6514C37.4964 79.9602 38.2531 79.5 39.1181 79.5V78.5C37.8886 78.5 36.8142 79.1559 36.2228 80.134L37.0786 80.6514ZM34.3643 83.2729C34.3643 81.984 35.3883 80.934 36.667 80.8924L36.6345 79.8929C34.8182 79.952 33.3643 81.4426 33.3643 83.2729H34.3643ZM34.3698 83.4363C34.3661 83.3823 34.3643 83.3278 34.3643 83.2729H33.3643C33.3643 83.3505 33.3669 83.4275 33.3721 83.504L34.3698 83.4363ZM33.0537 85.8904C33.0537 85.0516 33.4863 84.3149 34.1427 83.8898L33.5992 83.0504C32.6703 83.6519 32.0537 84.6983 32.0537 85.8904H33.0537ZM33.534 87.3247C33.2327 86.926 33.0537 86.4299 33.0537 85.8904H32.0537C32.0537 86.6553 32.3085 87.3616 32.7362 87.9276L33.534 87.3247ZM33.3818 88.7545C33.3818 88.4267 33.4556 88.1171 33.5869 87.8404L32.6833 87.4119C32.4901 87.8192 32.3818 88.275 32.3818 88.7545H33.3818ZM34.3104 90.5167C33.7489 90.1311 33.3818 89.4863 33.3818 88.7545H32.3818C32.3818 89.8299 32.9231 90.7771 33.7443 91.341L34.3104 90.5167ZM34.5273 90.9641V90.9289H33.5273V90.9641H34.5273ZM37.3183 93.755C35.7225 93.755 34.5273 92.4569 34.5273 90.9641H33.5273C33.5273 92.9836 35.145 94.755 37.3183 94.755V93.755ZM44.3546 93.755H37.3183V94.755H44.3546V93.755ZM47.2264 90.9953C47.1291 92.552 45.9435 93.755 44.3546 93.755V94.755C46.5084 94.755 48.0965 93.1038 48.2244 91.0577L47.2264 90.9953Z" fill="#fff"/>
    <path d="M43.3718 100.701C42.6354 100.946 41.8172 101.028 40.999 101.028C40.099 101.028 39.199 100.864 38.3809 100.619C38.4627 100.455 38.4627 100.292 38.4627 100.128V91.6189H43.2081V100.128C43.2081 100.373 43.2899 100.537 43.3718 100.701Z" fill="#fff"/>
    <path fill-rule="evenodd" clip-rule="evenodd" d="M37.9629 91.1189H43.7083V100.128C43.7083 100.246 43.7393 100.317 43.8192 100.477L44.077 100.993L43.5301 101.175C42.7235 101.444 41.8463 101.528 40.9992 101.528C40.0406 101.528 39.0915 101.354 38.2374 101.098L37.668 100.927L37.9338 100.395C37.9556 100.352 37.9629 100.304 37.9629 100.128V91.1189ZM38.9629 92.1189V100.128C38.9629 100.135 38.9629 100.142 38.9629 100.149C38.9629 100.182 38.963 100.219 38.9619 100.261C39.619 100.426 40.3123 100.528 40.9992 100.528C41.6018 100.528 42.1867 100.482 42.7262 100.361C42.7149 100.289 42.7083 100.211 42.7083 100.128V92.1189H38.9629Z" fill="#000"/>
    <path fill-rule="evenodd" clip-rule="evenodd" d="M35.9258 89.6443L36.3353 87.3625C36.5808 86.3807 37.399 85.5625 38.4626 85.5625H43.1262C44.1081 85.5625 45.0899 86.2989 45.2535 87.3625L45.7973 90.392C46.9151 90.4191 47.7083 91.3065 47.7083 92.2732C47.7083 93.255 46.8083 94.155 45.8265 94.155H45.8258V94.8088C45.744 97.1815 43.8621 99.0633 41.5712 99.0633H40.1803C37.8894 99.0633 35.9258 97.1815 35.9258 94.8088V94.155H35.8447C34.8629 94.155 33.9629 93.255 33.9629 92.2732C33.9629 91.2916 34.8625 90.3918 35.9258 90.3914V89.6443Z" fill="#fff"/>
    <path fill-rule="evenodd" clip-rule="evenodd" d="M35.8503 87.2412C36.1378 86.0912 37.1179 85.0625 38.4626 85.0625H43.1262C44.3308 85.0625 45.5393 85.9548 45.7467 87.2799L46.2233 89.9353C47.3944 90.1542 48.2083 91.1615 48.2083 92.2732C48.2083 93.3615 47.3672 94.3494 46.3258 94.5961V94.8174L46.3255 94.826C46.2349 97.4519 44.1474 99.5633 41.5712 99.5633H40.1803C37.6195 99.5633 35.4258 97.4639 35.4258 94.8088V94.6136C34.3476 94.3999 33.4629 93.3893 33.4629 92.2732C33.4629 91.1653 34.3265 90.1799 35.4258 89.9445V89.5998L35.8462 87.2576L35.8503 87.2412ZM36.8243 87.4683L36.4258 89.6888V90.8912L35.926 90.8914C35.1249 90.8917 34.4629 91.5812 34.4629 92.2732C34.4629 92.9789 35.139 93.655 35.8447 93.655H36.4258V94.8088C36.4258 96.8992 38.1593 98.5633 40.1803 98.5633H41.5712C43.5742 98.5633 45.2486 96.9155 45.3258 94.7999V93.655H45.8258C46.5315 93.655 47.2083 92.9789 47.2083 92.2732C47.2083 91.5782 46.632 90.9123 45.7852 90.8918L45.3772 90.882L44.7592 87.4385C44.6363 86.64 43.8834 86.0625 43.1262 86.0625H38.4626C37.685 86.0625 37.0322 86.6624 36.8243 87.4683Z" fill="#000"/>
    <path d="M43.3505 90.9526C43.3532 90.4556 43.1723 90.0516 42.9463 90.0504C42.7204 90.0492 42.535 90.4511 42.5323 90.9481C42.5296 91.4452 42.7105 91.8492 42.9364 91.8504C43.1624 91.8516 43.3477 91.4497 43.3505 90.9526Z" fill="#000"/>
    <path d="M39.1893 90.9141C39.1921 90.417 39.0111 90.0131 38.7852 90.0118C38.5593 90.0106 38.3739 90.4125 38.3712 90.9096C38.3684 91.4066 38.5494 91.8106 38.7753 91.8118C39.0012 91.8131 39.1866 91.4111 39.1893 90.9141Z" fill="#000"/>
    <path d="M42.5548 95.4642C42.5548 96.1187 41.982 96.6914 41.3275 96.7733C40.6729 97.0187 40.0184 96.7733 39.6911 96.2005C39.6093 96.1187 39.6911 95.9551 39.7729 95.8733H39.8548C40.4275 95.8733 40.7548 95.8733 41.082 95.7914C41.3275 95.7914 41.4093 95.7096 41.6548 95.546C41.9002 95.3823 41.982 95.3005 42.2275 95.2187C42.3093 95.1369 42.4729 95.2187 42.5548 95.3005C42.5548 95.3823 42.5548 95.3823 42.5548 95.4642Z" fill="#000"/>
    <path fill-rule="evenodd" clip-rule="evenodd" d="M40.5723 91.3053C40.7448 91.521 40.7099 91.8356 40.4943 92.0081L40.0798 92.3397C39.6217 92.696 39.7861 93.301 40.2273 93.425L40.5486 93.5054C40.8165 93.5723 40.9794 93.8438 40.9124 94.1117C40.8455 94.3796 40.574 94.5425 40.3061 94.4755L39.9685 94.3911C38.6143 94.0218 38.453 92.3415 39.4629 91.5526L39.8696 91.2273C40.0852 91.0548 40.3998 91.0897 40.5723 91.3053Z" fill="#000"/>
  </g>
  <use xlink:href="#density-compact-me" y="30"/>
  <g id="density-compact-you">
    <path d="M41 40.5C45.9706 40.5 50 36.4706 50 31.5C50 26.5294 45.9706 22.5 41 22.5C36.0294 22.5 32 26.5294 32 31.5C32 36.4706 36.0294 40.5 41 40.5Z" fill="#fff"/>
    <path d="M41.0002 40.5C42.0639 40.5 43.0457 40.3364 44.0275 40.0091C43.8639 39.8455 43.7002 39.5182 43.7002 39.2728V35.2637L38.9548 35.4273V39.3546C38.9548 39.6819 38.7093 40.0091 38.4639 40.1728C39.282 40.3364 40.1002 40.5 41.0002 40.5Z" fill="#fff"/>
    <path fill-rule="evenodd" clip-rule="evenodd" d="M44.1097 34.8403V39.2729C44.1097 39.3152 44.1269 39.3977 44.1743 39.5003C44.2206 39.6006 44.2771 39.68 44.3171 39.72L44.7852 40.188L44.1572 40.3973C43.1342 40.7383 42.1087 40.9092 41.0006 40.9092C40.06 40.9092 39.2083 40.7389 38.3991 40.577L37.4155 40.3803L38.2373 39.8325C38.3119 39.7827 38.3952 39.701 38.4576 39.6039C38.5207 39.5058 38.546 39.4182 38.546 39.3547V35.0322L44.1097 34.8403ZM39.3642 35.8226V39.3547C39.3642 39.5559 39.3075 39.7432 39.2269 39.9042C39.8089 40.0107 40.3856 40.091 41.0006 40.091C41.84 40.091 42.6244 39.985 43.4006 39.7724C43.3392 39.6228 43.2915 39.4476 43.2915 39.2729V35.6872L39.3642 35.8226Z" fill="#000"/>
    <path d="M41.0817 25.7728C43.1151 25.7728 44.7635 24.1244 44.7635 22.091C44.7635 20.0576 43.1151 18.4092 41.0817 18.4092C39.0483 18.4092 37.3999 20.0576 37.3999 22.091C37.3999 24.1244 39.0483 25.7728 41.0817 25.7728Z" fill="#000"/>
    <path fill-rule="evenodd" clip-rule="evenodd" d="M41.0816 18.8182C39.2742 18.8182 37.8089 20.2834 37.8089 22.0909C37.8089 23.8984 39.2742 25.3636 41.0816 25.3636C42.8891 25.3636 44.3544 23.8984 44.3544 22.0909C44.3544 20.2834 42.8891 18.8182 41.0816 18.8182ZM36.9907 22.0909C36.9907 19.8316 38.8223 18 41.0816 18C43.341 18 45.1725 19.8316 45.1725 22.0909C45.1725 24.3503 43.341 26.1818 41.0816 26.1818C38.8223 26.1818 36.9907 24.3503 36.9907 22.0909Z" fill="#fff"/>
    <path d="M41.0821 38.1274C45.1037 38.1274 48.3639 34.8672 48.3639 30.8455C48.3639 26.8239 45.1037 23.5637 41.0821 23.5637C37.0605 23.5637 33.8003 26.8239 33.8003 30.8455C33.8003 34.8672 37.0605 38.1274 41.0821 38.1274Z" fill="#000"/>
    <path d="M46.89 34.6092C46.1952 34.6092 45.6318 34.0459 45.6318 33.351C45.6318 32.6561 46.1952 32.0928 46.89 32.0928C47.5849 32.0928 48.1482 32.6561 48.1482 33.351C48.1482 34.0459 47.585 34.6092 46.89 34.6092Z" fill="#fff"/>
    <path fill-rule="evenodd" clip-rule="evenodd" d="M46.89 32.5018C46.421 32.5018 46.0408 32.8819 46.0408 33.3509C46.0408 33.8198 46.421 34.2 46.89 34.2C47.359 34.2 47.7391 33.8199 47.7391 33.3509C47.7391 32.8819 47.3589 32.5018 46.89 32.5018ZM45.2227 33.3509C45.2227 32.4301 45.9691 31.6836 46.89 31.6836C47.8108 31.6836 48.5572 32.4301 48.5572 33.3509C48.5572 34.2717 47.8109 35.0182 46.89 35.0182C45.9691 35.0182 45.2227 34.2717 45.2227 33.3509Z" fill="#000"/>
    <path d="M35.2221 34.6092C34.5272 34.6092 33.9639 34.0459 33.9639 33.351C33.9639 32.6561 34.5272 32.0928 35.2221 32.0928C35.917 32.0928 36.4803 32.6561 36.4803 33.351C36.4803 34.0459 35.917 34.6092 35.2221 34.6092Z" fill="#fff"/>
    <path fill-rule="evenodd" clip-rule="evenodd" d="M35.222 32.5018C34.753 32.5018 34.3729 32.8819 34.3729 33.3509C34.3729 33.8198 34.753 34.2 35.222 34.2C35.6909 34.2 36.0711 33.8198 36.0711 33.3509C36.0711 32.8819 35.6909 32.5018 35.222 32.5018ZM33.5547 33.3509C33.5547 32.4301 34.3012 31.6836 35.222 31.6836C36.1428 31.6836 36.8893 32.4301 36.8893 33.3509C36.8893 34.2717 36.1428 35.0182 35.222 35.0182C34.3012 35.0182 33.5547 34.2717 33.5547 33.3509Z" fill="#000"/>
    <path d="M41.0819 38.6184C44.1094 38.6184 46.5637 35.7611 46.5637 32.2366C46.5637 28.712 44.1094 25.8547 41.0819 25.8547C38.0544 25.8547 35.6001 28.712 35.6001 32.2366C35.6001 35.7611 38.0544 38.6184 41.0819 38.6184Z" fill="#fff"/>
    <path fill-rule="evenodd" clip-rule="evenodd" d="M41.0823 26.2637C38.3369 26.2637 36.0096 28.8773 36.0096 32.2365C36.0096 35.5957 38.3369 38.2092 41.0823 38.2092C43.8278 38.2092 46.155 35.5957 46.155 32.2365C46.155 28.8773 43.8278 26.2637 41.0823 26.2637ZM35.1914 32.2365C35.1914 28.5465 37.7727 25.4456 41.0823 25.4456C44.3919 25.4456 46.9732 28.5465 46.9732 32.2365C46.9732 35.9264 44.3919 39.0274 41.0823 39.0274C37.7727 39.0274 35.1914 35.9264 35.1914 32.2365Z" fill="#000"/>
    <path d="M34.7647 32.418C35.5829 31.1908 36.455 31.6354 37.645 31.5818C39.4608 31.5 40.7541 31.2545 41.8996 30.1091C42.3961 29.6125 42.7246 29.0016 42.952 28.3665C43.2566 30.0311 44.3781 31.9161 47.2996 32.0726C47.2996 32.0726 47.8127 28.0656 45.1081 26.0852C43.6393 25.0096 39.781 24.4532 37.3996 26.0852C34.2905 28.2158 34.7647 32.418 34.7647 32.418Z" fill="#000"/>
    <path d="M43.5364 35.1001C44.6209 35.1001 45.5 34.221 45.5 33.1365C45.5 32.052 44.6209 31.1729 43.5364 31.1729C42.4519 31.1729 41.5728 32.052 41.5728 33.1365C41.5728 34.221 42.4519 35.1001 43.5364 35.1001Z" fill="#fff"/>
    <path fill-rule="evenodd" clip-rule="evenodd" d="M43.5363 31.5819C42.6778 31.5819 41.9818 32.2778 41.9818 33.1364C41.9818 33.9949 42.6778 34.6909 43.5363 34.6909C44.3949 34.6909 45.0908 33.995 45.0908 33.1364C45.0908 32.2778 44.3949 31.5819 43.5363 31.5819ZM41.1636 33.1364C41.1636 31.826 42.2259 30.7637 43.5363 30.7637C44.8467 30.7637 45.909 31.826 45.909 33.1364C45.909 34.4468 44.8467 35.5091 43.5363 35.5091C42.2259 35.5091 41.1636 34.4468 41.1636 33.1364Z" fill="#000"/>
    <path d="M38.7088 35.1817C39.7932 35.1817 40.6724 34.3025 40.6724 33.218C40.6724 32.1335 39.7932 31.2544 38.7088 31.2544C37.6243 31.2544 36.7451 32.1335 36.7451 33.218C36.7451 34.3025 37.6243 35.1817 38.7088 35.1817Z" fill="#fff"/>
    <path fill-rule="evenodd" clip-rule="evenodd" d="M38.7092 31.6636C37.8506 31.6636 37.1546 32.3596 37.1546 33.2182C37.1546 34.0767 37.8506 34.7727 38.7092 34.7727C39.5677 34.7727 40.2637 34.0767 40.2637 33.2182C40.2637 32.3596 39.5677 31.6636 38.7092 31.6636ZM36.3364 33.2182C36.3364 31.9078 37.3987 30.8455 38.7092 30.8455C40.0196 30.8455 41.0819 31.9078 41.0819 33.2182C41.0819 34.5286 40.0196 35.5909 38.7092 35.5909C37.3987 35.5909 36.3364 34.5286 36.3364 33.2182Z" fill="#000"/>
    <path fill-rule="evenodd" clip-rule="evenodd" d="M41.5724 33.1363H40.6724V32.3181H41.5724V33.1363Z" fill="#000"/>
    <path d="M39.2628 33.1339C39.2645 32.7272 39.0828 32.3967 38.8568 32.3957C38.6309 32.3948 38.4463 32.7237 38.4446 33.1303C38.4428 33.537 38.6246 33.8675 38.8505 33.8685C39.0764 33.8694 39.261 33.5405 39.2628 33.1339Z" fill="#000"/>
    <path d="M43.7071 33.1978C43.7088 32.7911 43.5271 32.4607 43.3012 32.4597C43.0752 32.4587 42.8907 32.7876 42.8889 33.1943C42.8872 33.601 43.0689 33.9315 43.2948 33.9324C43.5208 33.9334 43.7053 33.6045 43.7071 33.1978Z" fill="#000"/>
    <path d="M41.8998 36.7363C41.7061 36.887 41.2452 37.1258 40.6725 36.9818C40.1442 36.8489 39.8111 36.456 39.6907 36.2454C39.5702 36.0348 39.694 35.8176 39.9361 35.9182C40.1782 36.0187 40.3855 36.1427 40.7543 36.2454C41.2452 36.3822 41.7361 36.3272 41.7361 36.3272C42.0358 36.2926 42.1029 36.5783 41.8998 36.7363Z" fill="#000"/>
  </g>
  <use xlink:href="#density-compact-you" y="30"/>
</svg>
