<svg version="1.1" xmlns="http://www.w3.org/2000/svg" xmlns:xlink="http://www.w3.org/1999/xlink" width="140" height="77" fill="none" viewBox="0 0 280 154">
  <rect width="280" height="154"  fill="#000"/>
  <rect width="103" height="28" x="91" y="20" stroke="#fff" rx="4"/>
  <rect width="95" height="5" x="95" y="26" fill="#fff"/>
  <rect width="76" height="5" x="95" y="37" fill="#fff"/>
  <rect width="103" height="28" x="91" y="65" stroke="#fff" rx="4"/>
  <rect width="76" height="5" x="95" y="71" fill="#fff"/>
  <rect width="95" height="5" x="95" y="82" fill="#fff"/>
  <rect width="90" height="28" x="132" y="110" stroke="#fff" rx="4"/>
  <rect width="64" height="5" x="136" y="116" fill="#fff"/>
  <rect width="82" height="5" x="136" y="127" fill="#fff"/>
  <g id="density-comfy-you">
    <path d="M70 43C76.0751 43 81 38.0751 81 32C81 25.9249 76.0751 21 70 21C63.9249 21 59 25.9249 59 32C59 38.0751 63.9249 43 70 43Z" fill="#fff"/>
    <path d="M69.9999 43.0001C71.2999 43.0001 72.4999 42.8001 73.6999 42.4001C73.4999 42.2001 73.2999 41.8001 73.2999 41.5001V36.6001L67.4999 36.8001V41.6001C67.4999 42.0001 67.1999 42.4001 66.8999 42.6001C67.8999 42.8001 68.8999 43.0001 69.9999 43.0001Z" fill="#fff"/>
    <path fill-rule="evenodd" clip-rule="evenodd" d="M73.7999 36.0825V41.5001C73.7999 41.5518 73.821 41.6527 73.8789 41.778C73.9354 41.9006 74.0046 41.9976 74.0534 42.0465L74.6255 42.6186L73.858 42.8744C72.6076 43.2912 71.3543 43.5001 69.9999 43.5001C68.8503 43.5001 67.8093 43.2919 66.8204 43.0941L65.6182 42.8536L66.6225 42.184C66.7138 42.1232 66.8155 42.0233 66.8918 41.9047C66.9689 41.7848 66.9999 41.6777 66.9999 41.6001V36.317L73.7999 36.0825ZM67.9999 37.2831V41.6001C67.9999 41.846 67.9306 42.0749 67.832 42.2718C68.5434 42.4019 69.2483 42.5001 69.9999 42.5001C71.0258 42.5001 71.9846 42.3704 72.9332 42.1106C72.8582 41.9278 72.7999 41.7136 72.7999 41.5001V37.1176L67.9999 37.2831Z" fill="#000"/>
    <path d="M70.1001 25C72.5854 25 74.6001 22.9853 74.6001 20.5C74.6001 18.0147 72.5854 16 70.1001 16C67.6148 16 65.6001 18.0147 65.6001 20.5C65.6001 22.9853 67.6148 25 70.1001 25Z" fill="#000"/>
    <path fill-rule="evenodd" clip-rule="evenodd" d="M70.1001 16.5C67.891 16.5 66.1001 18.2909 66.1001 20.5C66.1001 22.7091 67.891 24.5 70.1001 24.5C72.3092 24.5 74.1001 22.7091 74.1001 20.5C74.1001 18.2909 72.3092 16.5 70.1001 16.5ZM65.1001 20.5C65.1001 17.7386 67.3387 15.5 70.1001 15.5C72.8615 15.5 75.1001 17.7386 75.1001 20.5C75.1001 23.2614 72.8615 25.5 70.1001 25.5C67.3387 25.5 65.1001 23.2614 65.1001 20.5Z" fill="#fff"/>
    <path d="M70.1002 40.1C75.0155 40.1 79.0002 36.1154 79.0002 31.2001C79.0002 26.2847 75.0155 22.3 70.1002 22.3C65.1849 22.3 61.2002 26.2847 61.2002 31.2001C61.2002 36.1154 65.1849 40.1 70.1002 40.1Z" fill="#000"/>
    <path d="M77.1989 35.8C76.3496 35.8 75.6611 35.1115 75.6611 34.2622C75.6611 33.4129 76.3496 32.7244 77.1989 32.7244C78.0482 32.7244 78.7367 33.4129 78.7367 34.2622C78.7367 35.1115 78.0483 35.8 77.1989 35.8Z" fill="#fff"/>
    <path fill-rule="evenodd" clip-rule="evenodd" d="M77.1989 33.2244C76.6258 33.2244 76.1611 33.689 76.1611 34.2622C76.1611 34.8353 76.6258 35.3 77.1989 35.3C77.7722 35.3 78.2367 34.8353 78.2367 34.2622C78.2367 33.689 77.7721 33.2244 77.1989 33.2244ZM75.1611 34.2622C75.1611 33.1367 76.0735 32.2244 77.1989 32.2244C78.3244 32.2244 79.2367 33.1367 79.2367 34.2622C79.2367 35.3876 78.3245 36.3 77.1989 36.3C76.0735 36.3 75.1611 35.3876 75.1611 34.2622Z" fill="#000"/>
    <path d="M62.9377 35.8C62.0884 35.8 61.3999 35.1115 61.3999 34.2622C61.3999 33.4129 62.0884 32.7244 62.9377 32.7244C63.787 32.7244 64.4755 33.4129 64.4755 34.2622C64.4755 35.1115 63.787 35.8 62.9377 35.8Z" fill="#fff"/>
    <path fill-rule="evenodd" clip-rule="evenodd" d="M62.9377 33.2244C62.3645 33.2244 61.8999 33.689 61.8999 34.2622C61.8999 34.8353 62.3645 35.3 62.9377 35.3C63.5109 35.3 63.9755 34.8353 63.9755 34.2622C63.9755 33.689 63.5109 33.2244 62.9377 33.2244ZM60.8999 34.2622C60.8999 33.1367 61.8123 32.2244 62.9377 32.2244C64.0631 32.2244 64.9755 33.1367 64.9755 34.2622C64.9755 35.3876 64.0632 36.3 62.9377 36.3C61.8123 36.3 60.8999 35.3876 60.8999 34.2622Z" fill="#000"/>
    <path d="M70.0999 40.7001C73.8002 40.7001 76.7999 37.2079 76.7999 32.9001C76.7999 28.5923 73.8002 25.1001 70.0999 25.1001C66.3996 25.1001 63.3999 28.5923 63.3999 32.9001C63.3999 37.2079 66.3996 40.7001 70.0999 40.7001Z" fill="#fff"/>
    <path fill-rule="evenodd" clip-rule="evenodd" d="M70.0999 25.6001C66.7444 25.6001 63.8999 28.7944 63.8999 32.9001C63.8999 37.0058 66.7444 40.2001 70.0999 40.2001C73.4555 40.2001 76.2999 37.0058 76.2999 32.9001C76.2999 28.7944 73.4555 25.6001 70.0999 25.6001ZM62.8999 32.9001C62.8999 28.3902 66.0548 24.6001 70.0999 24.6001C74.145 24.6001 77.2999 28.3902 77.2999 32.9001C77.2999 37.41 74.145 41.2001 70.0999 41.2001C66.0548 41.2001 62.8999 37.41 62.8999 32.9001Z" fill="#000"/>
    <path d="M62.3798 33.1222C63.3798 31.6222 64.4457 32.1656 65.9002 32.1001C68.1195 32.0001 69.7002 31.7001 71.1002 30.3001C71.7071 29.6932 72.1086 28.9466 72.3865 28.1703C72.7588 30.2048 74.1295 32.5087 77.7002 32.7C77.7002 32.7 78.3274 27.8026 75.0218 25.382C73.2266 24.0674 68.5108 23.3874 65.6002 25.382C61.8002 27.9861 62.3798 33.1222 62.3798 33.1222Z" fill="#000"/>
    <path d="M73.1002 36.4001C74.4257 36.4001 75.5002 35.3256 75.5002 34.0001C75.5002 32.6746 74.4257 31.6001 73.1002 31.6001C71.7747 31.6001 70.7002 32.6746 70.7002 34.0001C70.7002 35.3256 71.7747 36.4001 73.1002 36.4001Z" fill="#fff"/>
    <path fill-rule="evenodd" clip-rule="evenodd" d="M73.1002 32.1001C72.0509 32.1001 71.2002 32.9508 71.2002 34.0001C71.2002 35.0494 72.0509 35.9001 73.1002 35.9001C74.1495 35.9001 75.0002 35.0494 75.0002 34.0001C75.0002 32.9508 74.1495 32.1001 73.1002 32.1001ZM70.2002 34.0001C70.2002 32.3985 71.4986 31.1001 73.1002 31.1001C74.7018 31.1001 76.0002 32.3985 76.0002 34.0001C76.0002 35.6017 74.7018 36.9001 73.1002 36.9001C71.4986 36.9001 70.2002 35.6017 70.2002 34.0001Z" fill="#000"/>
    <path d="M67.1998 36.4999C68.5253 36.4999 69.5998 35.4254 69.5998 34.0999C69.5998 32.7745 68.5253 31.7 67.1998 31.7C65.8743 31.7 64.7998 32.7745 64.7998 34.0999C64.7998 35.4254 65.8743 36.4999 67.1998 36.4999Z" fill="#fff"/>
    <path fill-rule="evenodd" clip-rule="evenodd" d="M67.1998 32.2C66.1505 32.2 65.2998 33.0506 65.2998 34.0999C65.2998 35.1493 66.1505 35.9999 67.1998 35.9999C68.2491 35.9999 69.0998 35.1493 69.0998 34.0999C69.0998 33.0506 68.2491 32.2 67.1998 32.2ZM64.2998 34.0999C64.2998 32.4983 65.5982 31.2 67.1998 31.2C68.8014 31.2 70.0998 32.4983 70.0998 34.0999C70.0998 35.7016 68.8014 36.9999 67.1998 36.9999C65.5982 36.9999 64.2998 35.7016 64.2998 34.0999Z" fill="#000"/>
    <path fill-rule="evenodd" clip-rule="evenodd" d="M70.7001 34H69.6001V33H70.7001V34Z" fill="#000"/>
    <path d="M67.8774 33.9969C67.8795 33.4998 67.6574 33.0959 67.3813 33.0947C67.1051 33.0935 66.8795 33.4955 66.8774 33.9926C66.8753 34.4896 67.0974 34.8935 67.3735 34.8947C67.6497 34.8959 67.8753 34.4939 67.8774 33.9969Z" fill="#000"/>
    <path d="M73.3095 34.0753C73.3117 33.5782 73.0895 33.1743 72.8134 33.1731C72.5373 33.1719 72.3117 33.5739 72.3095 34.071C72.3074 34.568 72.5295 34.9719 72.8057 34.9731C73.0818 34.9743 73.3074 34.5723 73.3095 34.0753Z" fill="#000"/>
    <path d="M71.0998 38.4001C70.8631 38.5842 70.2998 38.8761 69.5998 38.7001C68.9541 38.5377 68.547 38.0575 68.3998 37.8001C68.2526 37.5427 68.4039 37.2772 68.6998 37.4001C68.9957 37.523 69.249 37.6745 69.6998 37.8001C70.2998 37.9673 70.8998 37.9001 70.8998 37.9001C71.266 37.8577 71.3481 38.207 71.0998 38.4001Z" fill="#000"/>
  </g>
  <use xlink:href="#density-comfy-you" y="45"/>
</svg>
