<svg xmlns="http://www.w3.org/2000/svg" viewBox="0 0 280 153.991">
   <path fill="#464775" d="M0 11.12h280V1.97c0-1.125-.973-1.97-2.27-1.97H2.432C1.135 0 .162.845.162 1.97v9.15H0z"/>
   <path fill="#1f1f1f" d="M206.849 8.446H92.605c-.81 0-1.418-.423-1.418-.986V3.8c0-.562.607-.985 1.418-.985h114.244c.81 0 1.418.422 1.418.985v3.66c0 .563-.608.986-1.418.986z"/>
   <path fill="#E1DFDD" d="M76.965 88.96h7.883v1.971h-7.883zm2.956 19.425h4.786v1.971h-4.786zm-1.689 20.269h6.616v1.971h-6.616zm1.689-59.682h4.786v1.971h-4.786zm-1.689-19.143h6.616V51.8h-6.616z"/>
   <path fill="#2D2C2C" d="M277.58 153.99H81.077V11.12H280v140.9c0 1.126-1.037 1.97-2.42 1.97z"/>
   <path fill="#201F1F" d="M16.469 11.12h74.5v142.871h-74.5z"/>
   <path fill="#605E5C" d="M41.908 27.159H84.97v4.029H41.908zm0 15.382H84.97v4.029H41.908zm0 15.238H84.97v4.029H41.908zm0 15.237H84.97v4.029H41.908zm0 15.237H84.97v4.029H41.908zm0 15.238H84.97v4.029H41.908zm0 15.237H84.97v4.029H41.908z"/>
   <path fill="#0A0A0A" d="M21.628 153.99H2.734c-1.482 0-2.593-.844-2.593-1.97V11.12h21.487v142.87z"/>
   <path fill="#484644" d="M138.562 26.558h102.865v28.726H138.562z"/>
   <path fill="#B3AFAB" d="M142.59 31.241h95.007v4.618H142.59z"/>
   <path fill="#D9DADD" d="M142.864 39.722h75.583v4.891h-75.583z"/>
   <path fill="#484644" d="M138.562 71.898h102.865v28.726H138.562z"/>
   <path fill="#484874" d="M180.322 116.717h88.267v28.726h-88.267z"/>
   <path fill="#B3AFAB" d="M142.59 85.336h95.007v4.618H142.59z"/>
   <path fill="#D9DADD" d="M142.864 76.582h75.583v4.891h-75.583z"/>
   <path fill="#C8C6C4" d="M185.669 133.613h77.511v5.591h-77.511z"/>
   <path fill="#B3AFAB" d="M185.892 123.013h61.664v5.923h-61.664z"/>
   <circle fill="#FFF" cx="271.793" cy="5.42" r="3.512"/>
   <path fill="#C3F2F4" d="M26.954 23.715h10.917v10.917H26.954z"/>
   <circle fill="#8B8CC4" cx="117.712" cy="38.591" r="11.002"/>
   <linearGradient id="a" gradientUnits="userSpaceOnUse" x1="117.841" y1="112.444" x2="118.041" y2="106.656" gradientTransform="matrix(1 0 0 -1 0 156.455)">
      <stop offset=".067" stop-color="#9b643d"/>
      <stop offset=".847" stop-color="#e0bb95"/>
   </linearGradient>
   <path fill="url(#a)" d="M117.712 49.592c1.294 0 2.53-.235 3.683-.645a1.37 1.37 0 01-.382-.94v-4.875l-5.752.181-.006 4.838c0 .436-.252.81-.62.997.977.284 2.008.444 3.077.444z"/>
   <path fill="#E3646A" d="M124.719 29.046l-14.178.079-1.028-.53 1.022-.54 14.178-.079c.246-.001.449.238.45.533.002.294-.198.535-.444.537z"/>
   <linearGradient id="b" gradientUnits="userSpaceOnUse" x1="725.357" y1="1499.835" x2="730.845" y2="1507.081" gradientTransform="rotate(16.584 5489.369 -1329.505)">
      <stop offset=".269" stop-color="#594539"/>
      <stop offset=".811" stop-color="#463228"/>
   </linearGradient>
   <circle fill="url(#b)" cx="117.789" cy="27.134" r="4.543"/>
   <circle fill="#59453C" cx="117.775" cy="37.781" r="8.948"/>
   <ellipse fill="#E0BB95" cx="117.809" cy="39.506" rx="6.711" ry="7.783"/>
   <path fill="#E0BB95" d="M110.7 39.307a1.68 1.68 0 00-.645 1.187c-.047.512.081.94.385 1.28a1.68 1.68 0 001.187.646c.526.046.965-.09 1.32-.407.357-.265.573-.647.648-1.148a2.066 2.066 0 00-.388-1.32 1.899 1.899 0 00-1.226-.623 1.695 1.695 0 00-1.28.385zm11.9 0a1.68 1.68 0 00-.645 1.187c-.047.512.082.94.385 1.28a1.68 1.68 0 001.187.646c.526.046.966-.09 1.32-.407.357-.265.574-.647.648-1.148a2.066 2.066 0 00-.388-1.32 1.899 1.899 0 00-1.226-.623 1.695 1.695 0 00-1.28.385z"/>
   <path fill="#594539" d="M111.495 33.003c-1.636 2.266-2.062 4.49-1.415 6.964.997-1.54 2.1-.876 3.514-1.262 1.816-.495 3.814-.376 5.185-1.779 1.76-1.801 1.906-4.776 1.76-6.267-.038-.387-6.471-1.019-9.044 2.344z"/>
   <path fill="#594539" d="M120.218 31.956c-.625 1.53-.428 6.997 5.196 7.302.088-2.298.33-4.541-.97-6.35-1.265-1.632-3.268-3.3-4.226-.952z"/>
   <circle fill="none" stroke="#9B643D" stroke-width=".655" stroke-linecap="round" stroke-linejoin="round" cx="120.777" cy="40.63" r="2.368"/>
   <circle fill="none" stroke="#9B643D" stroke-width=".655" stroke-linecap="round" stroke-linejoin="round" cx="114.915" cy="40.701" r="2.368"/>
   <path fill="none" stroke="#9B643D" stroke-width=".655" stroke-linecap="round" stroke-linejoin="round" d="M117.282 40.085l1.114-.014"/>
   <ellipse transform="rotate(-89.754 115.086 40.61)" fill="#33312D" cx="115.087" cy="40.611" rx=".897" ry=".478"/>
   <ellipse transform="rotate(-89.754 120.542 40.634)" fill="#33312D" cx="120.542" cy="40.634" rx=".897" ry=".478"/>
   <path fill="#BF8F68" d="M118.75 44.956c-.433.302-.946.39-1.478.304a1.787 1.787 0 01-.737-.318 1.521 1.521 0 01-.481-.613.277.277 0 01.37-.361l.046.021c.19.088.335.191.5.245.15.078.31.118.475.155.325.084.712.069 1.095.069h.054a.274.274 0 01.157.498z"/>
   <circle fill="#8B8CC4" cx="117.712" cy="83.594" r="11.002"/>
   <linearGradient id="c" gradientUnits="userSpaceOnUse" x1="117.841" y1="67.441" x2="118.041" y2="61.653" gradientTransform="matrix(1 0 0 -1 0 156.455)">
      <stop offset=".067" stop-color="#9b643d"/>
      <stop offset=".847" stop-color="#e0bb95"/>
   </linearGradient>
   <path fill="url(#c)" d="M117.712 94.595c1.294 0 2.53-.235 3.683-.645a1.37 1.37 0 01-.382-.94v-4.874l-5.752.18-.006 4.838c0 .436-.252.81-.62.997.977.284 2.008.444 3.077.444z"/>
   <path fill="#E3646A" d="M124.719 74.049l-14.178.079-1.028-.53 1.022-.54 14.178-.079c.246 0 .449.239.45.533.002.294-.198.536-.444.537z"/>
   <linearGradient id="d" gradientUnits="userSpaceOnUse" x1="738.202" y1="1542.967" x2="743.689" y2="1550.213" gradientTransform="rotate(16.584 5489.369 -1329.505)">
      <stop offset=".269" stop-color="#594539"/>
      <stop offset=".811" stop-color="#463228"/>
   </linearGradient>
   <circle fill="url(#d)" cx="117.789" cy="72.137" r="4.543"/>
   <circle fill="#59453C" cx="117.775" cy="82.785" r="8.948"/>
   <ellipse fill="#E0BB95" cx="117.809" cy="84.509" rx="6.711" ry="7.783"/>
   <path fill="#E0BB95" d="M110.7 84.31a1.68 1.68 0 00-.645 1.187c-.047.512.081.94.385 1.281a1.68 1.68 0 001.187.646c.526.046.965-.09 1.32-.408.357-.265.573-.647.648-1.147a2.066 2.066 0 00-.388-1.321 1.899 1.899 0 00-1.226-.623 1.695 1.695 0 00-1.28.385zm11.9 0a1.68 1.68 0 00-.645 1.187c-.047.512.082.94.385 1.281a1.68 1.68 0 001.187.646c.526.046.966-.09 1.32-.408.357-.265.574-.647.648-1.147a2.066 2.066 0 00-.388-1.321 1.899 1.899 0 00-1.226-.623 1.695 1.695 0 00-1.28.385z"/>
   <path fill="#594539" d="M111.495 78.006c-1.636 2.266-2.062 4.49-1.415 6.964.997-1.54 2.1-.876 3.514-1.262 1.816-.495 3.814-.376 5.185-1.779 1.76-1.801 1.906-4.776 1.76-6.267-.038-.387-6.471-1.019-9.044 2.344z"/>
   <path fill="#594539" d="M120.218 76.959c-.625 1.53-.428 6.998 5.196 7.302.088-2.297.33-4.54-.97-6.35-1.265-1.632-3.268-3.3-4.226-.952z"/>
   <circle fill="none" stroke="#9B643D" stroke-width=".655" stroke-linecap="round" stroke-linejoin="round" cx="120.777" cy="85.633" r="2.368"/>
   <circle fill="none" stroke="#9B643D" stroke-width=".655" stroke-linecap="round" stroke-linejoin="round" cx="114.915" cy="85.704" r="2.368"/>
   <path fill="none" stroke="#9B643D" stroke-width=".655" stroke-linecap="round" stroke-linejoin="round" d="M117.282 85.088l1.114-.014"/>
   <ellipse transform="rotate(-89.754 115.087 85.613)" fill="#33312D" cx="115.087" cy="85.614" rx=".897" ry=".478"/>
   <ellipse transform="rotate(-89.754 120.542 85.637)" fill="#33312D" cx="120.543" cy="85.638" rx=".897" ry=".478"/>
   <path fill="#BF8F68" d="M118.75 89.959c-.433.302-.946.39-1.478.304a1.787 1.787 0 01-.737-.318 1.521 1.521 0 01-.481-.612.277.277 0 01.37-.362l.046.021c.19.088.335.191.5.245.15.078.31.118.475.155.325.084.712.069 1.095.069h.054a.274.274 0 01.157.498z"/>
</svg>