<svg xmlns="http://www.w3.org/2000/svg" viewBox="0 0 280 154">
   <path fill="#6264a7" d="M0 11.1h280V2c0-1.1-1-2-2.3-2H2.4C1.1 0 .2.8.2 2v9.1H0z"/>
   <path fill="#E2E2F6" d="M206.8 8.4H92.6c-.8 0-1.4-.4-1.4-1V3.8c0-.6.6-1 1.4-1h114.2c.8 0 1.4.4 1.4 1v3.7c.1.5-.5.9-1.4.9z"/>
   <path fill="#E1DFDD" d="M77 89h7.9v2H77zm2.9 19.4h4.8v2h-4.8zm-1.7 20.3h6.6v2h-6.6zM79.9 69h4.8v2h-4.8zm-1.7-19.2h6.6v2h-6.6z"/>
   <path fill="#F5F5F5" d="M277.6 154H81.1V11.1H280V152c0 1.1-1 2-2.4 2z"/>
   <path fill="#F0F0F0" d="M16.5 11.1H91V154H16.5z"/>
   <path fill="#D9DADD" d="M41.9 27.3H85v4H41.9zm0 15.2H85v4H41.9zm0 15.3H85v4H41.9zm0 15.2H85v4H41.9zm0 15.3H85v4H41.9zm0 15.2H85v4H41.9zm0 15.2H85v4H41.9z"/>
   <path fill="#EBEBEB" d="M21.6 154H2.7c-1.5 0-2.6-.8-2.6-2V11.1h21.5V154z"/>
   <path fill="#FFF" stroke="#E1DFDD" stroke-width=".19" stroke-miterlimit="10" d="M138.6 26.6h102.9v28.7H138.6z"/>
   <path fill="#B3AFAB" d="M142.6 31.2h95v4.6h-95z"/>
   <path fill="#D9DADD" d="M142.9 39.7h75.6v4.9h-75.6z"/>
   <circle fill="#8B8CC4" cx="117.7" cy="38.6" r="11"/>
   <linearGradient id="a" gradientUnits="userSpaceOnUse" x1="117.825" y1="-11.548" x2="118.024" y2="-17.335" gradientTransform="matrix(1 0 0 -1 0 32.464)">
      <stop offset=".067" stop-color="#9b643d"/>
      <stop offset=".847" stop-color="#e0bb95"/>
   </linearGradient>
   <path fill="url(#a)" d="M117.7 49.6c1.3 0 2.5-.2 3.7-.6-.2-.2-.4-.6-.4-.9v-4.9l-5.8.2v4.8c0 .4-.3.8-.6 1 1 .2 2 .4 3.1.4z"/>
   <path fill="#E3646A" d="M124.7 29l-14.2.1-1-.5 1-.5 14.2-.1c.2 0 .4.2.5.5 0 .3-.2.5-.5.5z"/>
   <linearGradient id="b" gradientUnits="userSpaceOnUse" x1="760.764" y1="1618.666" x2="766.251" y2="1625.912" gradientTransform="rotate(16.584 5914.808 -1391.512)">
      <stop offset=".269" stop-color="#594539"/>
      <stop offset=".811" stop-color="#463228"/>
   </linearGradient>
   <circle fill="url(#b)" cx="117.8" cy="27.1" r="4.5"/>
   <circle fill="#59453C" cx="117.8" cy="37.8" r="8.9"/>
   <ellipse fill="#E0BB95" cx="117.8" cy="39.5" rx="6.7" ry="7.8"/>
   <path fill="#E0BB95" d="M110.7 39.3c-.4.3-.6.7-.6 1.2s.1.9.4 1.3c.3.4.7.6 1.2.6s1-.1 1.3-.4c.4-.3.6-.6.6-1.1s-.1-.9-.4-1.3c-.3-.4-.7-.6-1.2-.6-.5-.1-.9 0-1.3.3zm11.9 0c-.4.3-.6.7-.6 1.2s.1.9.4 1.3c.3.4.7.6 1.2.6s1-.1 1.3-.4c.4-.3.6-.6.6-1.1s-.1-.9-.4-1.3c-.3-.4-.7-.6-1.2-.6-.5-.1-.9 0-1.3.3z"/>
   <path fill="#594539" d="M111.5 33c-1.6 2.3-2.1 4.5-1.4 7 1-1.5 2.1-.9 3.5-1.3 1.8-.5 3.8-.4 5.2-1.8 1.8-1.8 1.9-4.8 1.8-6.3-.1-.3-6.5-1-9.1 2.4z"/>
   <path fill="#594539" d="M120.2 32c-.6 1.5-.4 7 5.2 7.3.1-2.3.3-4.5-1-6.4-1.2-1.6-3.2-3.3-4.2-.9z"/>
   <circle fill="none" stroke="#9B643D" stroke-width=".655" stroke-linecap="round" stroke-linejoin="round" cx="120.8" cy="40.6" r="2.4"/>
   <circle fill="none" stroke="#9B643D" stroke-width=".655" stroke-linecap="round" stroke-linejoin="round" cx="114.9" cy="40.7" r="2.4"/>
   <path fill="none" stroke="#9B643D" stroke-width=".655" stroke-linecap="round" stroke-linejoin="round" d="M117.3 40.1h1.1"/>
   <ellipse transform="rotate(-89.754 115.076 40.595)" fill="#33312D" cx="115.076" cy="40.596" rx=".9" ry=".5"/>
   <ellipse transform="rotate(-89.754 120.508 40.674)" fill="#33312D" cx="120.508" cy="40.674" rx=".9" ry=".5"/>
   <path fill="#BF8F68" d="M118.8 45c-.4.3-.9.4-1.5.3-.3 0-.5-.2-.7-.3-.2-.2-.4-.4-.5-.6-.1-.1 0-.3.1-.4h.2c.2.1.3.2.5.2.2.1.3.1.5.2.3.1.7.1 1.1.1h.1c.2 0 .3.1.3.3 0 0-.1.1-.1.2z"/>
   <path fill="#FFF" stroke="#E1DFDD" stroke-width=".19" stroke-miterlimit="10" d="M138.6 71.9h102.9v28.7H138.6z"/>
   <path fill="#E2E2F6" d="M180.3 116.7h88.3v28.7h-88.3z"/>
   <path fill="#B3AFAB" d="M142.6 85.3h95v4.6h-95z"/>
   <path fill="#D9DADD" d="M142.9 76.6h75.6v4.9h-75.6z"/>
   <path fill="#C8C6C4" d="M185.7 133.6h77.5v5.6h-77.5z"/>
   <path fill="#B3AFAB" d="M185.9 123h61.7v5.9h-61.7z"/>
   <circle fill="#FFF" cx="271.8" cy="5.4" r="3.5"/>
   <path fill="#C3F2F4" d="M26.3 23.9h10.9v10.9H26.3z"/>
   <circle fill="#8B8CC4" cx="117.7" cy="83.6" r="11"/>
   <linearGradient id="c" gradientUnits="userSpaceOnUse" x1="117.825" y1="-56.551" x2="118.024" y2="-62.338" gradientTransform="matrix(1 0 0 -1 0 32.464)">
      <stop offset=".067" stop-color="#9b643d"/>
      <stop offset=".847" stop-color="#e0bb95"/>
   </linearGradient>
   <path fill="url(#c)" d="M117.7 94.6c1.3 0 2.5-.2 3.7-.6-.2-.2-.4-.6-.4-.9v-4.9l-5.8.2v4.8c0 .4-.3.8-.6 1 1 .2 2 .4 3.1.4z"/>
   <path fill="#E3646A" d="M124.7 74l-14.2.1-1-.5 1-.5 14.2-.1c.2 0 .4.2.5.5 0 .3-.2.5-.5.5z"/>
   <linearGradient id="d" gradientUnits="userSpaceOnUse" x1="773.609" y1="1661.797" x2="779.096" y2="1669.043" gradientTransform="rotate(16.584 5914.808 -1391.512)">
      <stop offset=".269" stop-color="#594539"/>
      <stop offset=".811" stop-color="#463228"/>
   </linearGradient>
   <circle fill="url(#d)" cx="117.8" cy="72.1" r="4.5"/>
   <circle fill="#59453C" cx="117.8" cy="82.8" r="8.9"/>
   <ellipse fill="#E0BB95" cx="117.8" cy="84.5" rx="6.7" ry="7.8"/>
   <path fill="#E0BB95" d="M110.7 84.3c-.4.3-.6.7-.6 1.2s.1.9.4 1.3.7.6 1.2.6 1-.1 1.3-.4c.4-.3.6-.6.6-1.1s-.1-.9-.4-1.3-.7-.6-1.2-.6c-.5-.1-.9 0-1.3.3zm11.9 0c-.4.3-.6.7-.6 1.2s.1.9.4 1.3.7.6 1.2.6 1-.1 1.3-.4c.4-.3.6-.6.6-1.1s-.1-.9-.4-1.3-.7-.6-1.2-.6c-.5-.1-.9 0-1.3.3z"/>
   <path fill="#594539" d="M111.5 78c-1.6 2.3-2.1 4.5-1.4 7 1-1.5 2.1-.9 3.5-1.3 1.8-.5 3.8-.4 5.2-1.8 1.8-1.8 1.9-4.8 1.8-6.3-.1-.3-6.5-1-9.1 2.4z"/>
   <path fill="#594539" d="M120.2 77c-.6 1.5-.4 7 5.2 7.3.1-2.3.3-4.5-1-6.4-1.2-1.6-3.2-3.3-4.2-.9z"/>
   <circle fill="none" stroke="#9B643D" stroke-width=".655" stroke-linecap="round" stroke-linejoin="round" cx="120.8" cy="85.6" r="2.4"/>
   <circle fill="none" stroke="#9B643D" stroke-width=".655" stroke-linecap="round" stroke-linejoin="round" cx="114.9" cy="85.7" r="2.4"/>
   <path fill="none" stroke="#9B643D" stroke-width=".655" stroke-linecap="round" stroke-linejoin="round" d="M117.3 85.1h1.1"/>
   <ellipse transform="rotate(-89.754 115.074 85.598)" fill="#33312D" cx="115.074" cy="85.599" rx=".9" ry=".5"/>
   <ellipse transform="rotate(-89.754 120.506 85.677)" fill="#33312D" cx="120.507" cy="85.678" rx=".9" ry=".5"/>
   <path fill="#BF8F68" d="M118.8 90c-.4.3-.9.4-1.5.3-.3 0-.5-.2-.7-.3-.2-.2-.4-.4-.5-.6-.1-.1 0-.3.1-.4h.2c.2.1.3.2.5.2.2.1.3.1.5.2.3.1.7.1 1.1.1h.1c.2 0 .3.1.3.3 0 0-.1.1-.1.2z"/>
</svg>